<svg width="918" height="150" viewBox="0 0 918 150" fill="none" xmlns="http://www.w3.org/2000/svg">
<circle cx="75" cy="75" r="75" fill="#6C48B8"/>
<path d="M229.43 81.9219H222.008V102H208.297V45.125H230.68C237.424 45.125 242.698 46.6224 246.5 49.6172C250.302 52.612 252.203 56.8438 252.203 62.3125C252.203 66.2708 251.396 69.5521 249.781 72.1562C248.193 74.7604 245.693 76.8698 242.281 78.4844L254.156 101.414V102H239.469L229.43 81.9219ZM222.008 71.3359H230.68C233.284 71.3359 235.237 70.6589 236.539 69.3047C237.867 67.9245 238.531 66.0104 238.531 63.5625C238.531 61.1146 237.867 59.2005 236.539 57.8203C235.211 56.4141 233.258 55.7109 230.68 55.7109H222.008V71.3359ZM280.328 102.781C273.844 102.781 268.596 100.854 264.586 97C260.576 93.1198 258.57 88.0807 258.57 81.8828V80.7891C258.57 76.4661 259.365 72.651 260.953 69.3438C262.568 66.0365 264.911 63.4844 267.984 61.6875C271.057 59.8646 274.703 58.9531 278.922 58.9531C284.859 58.9531 289.547 60.8021 292.984 64.5C296.422 68.1719 298.141 73.3021 298.141 79.8906V85.0078H271.969C272.438 87.3776 273.466 89.2396 275.055 90.5938C276.643 91.9479 278.701 92.625 281.227 92.625C285.393 92.625 288.648 91.1667 290.992 88.25L297.008 95.3594C295.367 97.625 293.036 99.4349 290.016 100.789C287.021 102.117 283.792 102.781 280.328 102.781ZM278.844 69.1094C274.99 69.1094 272.698 71.6615 271.969 76.7656H285.25V75.75C285.302 73.6406 284.768 72.013 283.648 70.8672C282.529 69.6953 280.927 69.1094 278.844 69.1094ZM327.281 102C326.812 101.141 326.396 99.8776 326.031 98.2109C323.609 101.258 320.224 102.781 315.875 102.781C311.891 102.781 308.505 101.583 305.719 99.1875C302.932 96.7656 301.539 93.7318 301.539 90.0859C301.539 85.5026 303.232 82.0391 306.617 79.6953C310.003 77.3516 314.924 76.1797 321.383 76.1797H325.445V73.9531C325.445 70.0729 323.766 68.1328 320.406 68.1328C317.281 68.1328 315.719 69.6693 315.719 72.7422H302.555C302.555 68.6536 304.286 65.3333 307.75 62.7812C311.24 60.2292 315.68 58.9531 321.07 58.9531C326.461 58.9531 330.719 60.2682 333.844 62.8984C336.969 65.5286 338.57 69.1354 338.648 73.7188V92.4297C338.701 96.3099 339.299 99.2786 340.445 101.336V102H327.281ZM319.039 93.4062C320.68 93.4062 322.034 93.0547 323.102 92.3516C324.195 91.6484 324.977 90.8542 325.445 89.9688V83.2109H321.617C317.034 83.2109 314.742 85.2682 314.742 89.3828C314.742 90.5807 315.146 91.5573 315.953 92.3125C316.76 93.0417 317.789 93.4062 319.039 93.4062ZM359.859 102H346.656V42H359.859V102ZM430.836 55.7109H413.766V102H400.055V55.7109H383.297V45.125H430.836V55.7109ZM449.938 102H436.734V59.7344H449.938V102ZM435.953 48.8359C435.953 46.9609 436.63 45.4245 437.984 44.2266C439.339 43.0286 441.096 42.4297 443.258 42.4297C445.419 42.4297 447.177 43.0286 448.531 44.2266C449.885 45.4245 450.562 46.9609 450.562 48.8359C450.562 50.7109 449.885 52.2474 448.531 53.4453C447.177 54.6432 445.419 55.2422 443.258 55.2422C441.096 55.2422 439.339 54.6432 437.984 53.4453C436.63 52.2474 435.953 50.7109 435.953 48.8359ZM470.523 59.7344L470.953 64.6953C473.948 60.8672 477.971 58.9531 483.023 58.9531C488.362 58.9531 491.969 61.0755 493.844 65.3203C496.708 61.0755 500.849 58.9531 506.266 58.9531C514.833 58.9531 519.234 64.1354 519.469 74.5V102H506.266V75.3203C506.266 73.1589 505.901 71.5833 505.172 70.5938C504.443 69.6042 503.115 69.1094 501.188 69.1094C498.583 69.1094 496.643 70.2682 495.367 72.5859L495.406 73.1328V102H482.203V75.3984C482.203 73.1849 481.852 71.5833 481.148 70.5938C480.445 69.6042 479.104 69.1094 477.125 69.1094C474.599 69.1094 472.672 70.2682 471.344 72.5859V102H458.18V59.7344H470.523ZM547.438 102.781C540.953 102.781 535.706 100.854 531.695 97C527.685 93.1198 525.68 88.0807 525.68 81.8828V80.7891C525.68 76.4661 526.474 72.651 528.062 69.3438C529.677 66.0365 532.021 63.4844 535.094 61.6875C538.167 59.8646 541.812 58.9531 546.031 58.9531C551.969 58.9531 556.656 60.8021 560.094 64.5C563.531 68.1719 565.25 73.3021 565.25 79.8906V85.0078H539.078C539.547 87.3776 540.576 89.2396 542.164 90.5938C543.753 91.9479 545.81 92.625 548.336 92.625C552.503 92.625 555.758 91.1667 558.102 88.25L564.117 95.3594C562.477 97.625 560.146 99.4349 557.125 100.789C554.13 102.117 550.901 102.781 547.438 102.781ZM545.953 69.1094C542.099 69.1094 539.807 71.6615 539.078 76.7656H552.359V75.75C552.411 73.6406 551.878 72.013 550.758 70.8672C549.638 69.6953 548.036 69.1094 545.953 69.1094ZM637.125 82.7422C636.943 86.7005 635.875 90.2031 633.922 93.25C631.969 96.2708 629.221 98.6146 625.68 100.281C622.164 101.948 618.141 102.781 613.609 102.781C606.135 102.781 600.25 100.346 595.953 95.4766C591.656 90.6068 589.508 83.7318 589.508 74.8516V72.0391C589.508 66.4661 590.471 61.5964 592.398 57.4297C594.352 53.237 597.151 50.0078 600.797 47.7422C604.443 45.4505 608.661 44.3047 613.453 44.3047C620.354 44.3047 625.901 46.1276 630.094 49.7734C634.286 53.3932 636.669 58.3932 637.242 64.7734H623.57C623.466 61.3099 622.594 58.8229 620.953 57.3125C619.312 55.8021 616.812 55.0469 613.453 55.0469C610.042 55.0469 607.542 56.3229 605.953 58.875C604.365 61.4271 603.531 65.5026 603.453 71.1016V75.125C603.453 81.1927 604.208 85.5286 605.719 88.1328C607.255 90.737 609.885 92.0391 613.609 92.0391C616.76 92.0391 619.169 91.2969 620.836 89.8125C622.503 88.3281 623.388 85.9714 623.492 82.7422H637.125ZM655.875 64.2656C658.688 60.724 662.281 58.9531 666.656 58.9531C671.318 58.9531 674.833 60.3333 677.203 63.0938C679.573 65.8542 680.784 69.9297 680.836 75.3203V102H667.633V75.6328C667.633 73.3932 667.177 71.7526 666.266 70.7109C665.354 69.6432 663.805 69.1094 661.617 69.1094C658.909 69.1094 656.995 69.9688 655.875 71.6875V102H642.711V42H655.875V64.2656ZM711.969 102C711.5 101.141 711.083 99.8776 710.719 98.2109C708.297 101.258 704.911 102.781 700.562 102.781C696.578 102.781 693.193 101.583 690.406 99.1875C687.62 96.7656 686.227 93.7318 686.227 90.0859C686.227 85.5026 687.919 82.0391 691.305 79.6953C694.69 77.3516 699.612 76.1797 706.07 76.1797H710.133V73.9531C710.133 70.0729 708.453 68.1328 705.094 68.1328C701.969 68.1328 700.406 69.6693 700.406 72.7422H687.242C687.242 68.6536 688.974 65.3333 692.438 62.7812C695.927 60.2292 700.367 58.9531 705.758 58.9531C711.148 58.9531 715.406 60.2682 718.531 62.8984C721.656 65.5286 723.258 69.1354 723.336 73.7188V92.4297C723.388 96.3099 723.987 99.2786 725.133 101.336V102H711.969ZM703.727 93.4062C705.367 93.4062 706.721 93.0547 707.789 92.3516C708.883 91.6484 709.664 90.8542 710.133 89.9688V83.2109H706.305C701.721 83.2109 699.43 85.2682 699.43 89.3828C699.43 90.5807 699.833 91.5573 700.641 92.3125C701.448 93.0417 702.477 93.4062 703.727 93.4062ZM745.992 49.2266V59.7344H752.945V68.875H745.992V88.2109C745.992 89.7995 746.279 90.9062 746.852 91.5312C747.424 92.1562 748.557 92.4688 750.25 92.4688C751.552 92.4688 752.646 92.3906 753.531 92.2344V101.648C751.161 102.404 748.688 102.781 746.109 102.781C741.578 102.781 738.232 101.714 736.07 99.5781C733.909 97.4427 732.828 94.2005 732.828 89.8516V68.875H727.438V59.7344H732.828V49.2266H745.992ZM810.992 91.375H792.203L788.922 102H774.273L795.133 45.125H808.023L829.039 102H814.312L810.992 91.375ZM795.484 80.7891H807.711L801.578 61.0625L795.484 80.7891ZM869.977 81.1797C869.977 87.7422 868.492 92.9896 865.523 96.9219C862.581 100.828 858.596 102.781 853.57 102.781C849.69 102.781 846.5 101.362 844 98.5234V118.25H830.836V59.7344H843.141L843.531 63.6406C846.057 60.5156 849.378 58.9531 853.492 58.9531C858.701 58.9531 862.75 60.8802 865.641 64.7344C868.531 68.5625 869.977 73.8359 869.977 80.5547V81.1797ZM856.812 80.3594C856.812 72.8594 854.625 69.1094 850.25 69.1094C847.125 69.1094 845.042 70.2292 844 72.4688V89.1094C845.146 91.4531 847.255 92.625 850.328 92.625C854.521 92.625 856.682 89.0052 856.812 81.7656V80.3594ZM915.055 81.1797C915.055 87.7422 913.57 92.9896 910.602 96.9219C907.659 100.828 903.674 102.781 898.648 102.781C894.768 102.781 891.578 101.362 889.078 98.5234V118.25H875.914V59.7344H888.219L888.609 63.6406C891.135 60.5156 894.456 58.9531 898.57 58.9531C903.779 58.9531 907.828 60.8802 910.719 64.7344C913.609 68.5625 915.055 73.8359 915.055 80.5547V81.1797ZM901.891 80.3594C901.891 72.8594 899.703 69.1094 895.328 69.1094C892.203 69.1094 890.12 70.2292 889.078 72.4688V89.1094C890.224 91.4531 892.333 92.625 895.406 92.625C899.599 92.625 901.76 89.0052 901.891 81.7656V80.3594Z" fill="black"/>
</svg>
